<svg width="20" height="20" viewBox="0 0 20 20" fill="none" xmlns="http://www.w3.org/2000/svg">
<path d="M7.1 0.333334C6.4 0.111111 5.6 0 4.9 0C4.4 0 4 0.111111 3.6 0.555556C3.3 0.888889 3.1 1.44444 3.1 2V2.33333H2.8C1.3 2.33333 0 3.66667 0 5.44444V16.8889C0 18.5556 1.3 20 2.8 20H10.2V2.33333C9.3 1.44444 8.2 0.777778 7.1 0.333334ZM2.8 18.3333C2.1 18.3333 1.5 17.6667 1.5 16.8889V5.44444C1.5 4.66667 2.1 4 2.8 4H3.1V14.6667C3.1 15.7778 3.9 16.5556 4.8 16.6667C5.5 16.6667 6.1 16.8889 6.7 17.1111C7.4 17.4444 8 17.8889 8.4 18.3333H2.8ZM17.2 2.33333H11.2V20H17.2C18.7 20 20 18.5556 20 16.8889V5.44444C20 3.66667 18.7 2.33333 17.2 2.33333ZM16.2 16.5556H13.1C12.7 16.5556 12.3 16.2222 12.3 15.6667C12.3 15.2222 12.6 14.7778 13.1 14.7778H16.2C16.6 14.7778 17 15.1111 17 15.6667C16.9 16.2222 16.6 16.5556 16.2 16.5556ZM16.2 12H13.1C12.7 12 12.3 11.6667 12.3 11.1111C12.3 10.6667 12.6 10.2222 13.1 10.2222H16.2C16.6 10.2222 17 10.5556 17 11.1111C16.9 11.5556 16.6 12 16.2 12ZM16.2 7.33333H13.1C12.7 7.33333 12.3 7 12.3 6.44445C12.3 6 12.6 5.55556 13.1 5.55556H16.2C16.6 5.55556 17 5.88889 17 6.44445C16.9 7 16.6 7.33333 16.2 7.33333Z" fill="#FFFFFE"/>
</svg>
