<svg width="20" height="21" viewBox="0 0 20 21" fill="none" xmlns="http://www.w3.org/2000/svg">
<path opacity="0.4" d="M10.0003 18.8332C14.6027 18.8332 18.3337 15.1022 18.3337 10.4998C18.3337 5.89746 14.6027 2.1665 10.0003 2.1665C5.39795 2.1665 1.66699 5.89746 1.66699 10.4998C1.66699 15.1022 5.39795 18.8332 10.0003 18.8332Z" fill="#16161A"/>
<path d="M13.0919 13.775C12.9835 13.775 12.8752 13.75 12.7752 13.6833L10.1919 12.1416C9.55019 11.7583 9.0752 10.9166 9.0752 10.175V6.7583C9.0752 6.41663 9.35853 6.1333 9.7002 6.1333C10.0419 6.1333 10.3252 6.41663 10.3252 6.7583V10.175C10.3252 10.475 10.5752 10.9166 10.8335 11.0666L13.4169 12.6083C13.7169 12.7833 13.8085 13.1666 13.6335 13.4666C13.5085 13.6666 13.3002 13.775 13.0919 13.775Z" fill="#16161A"/>
</svg>
