<svg width="80" height="93" viewBox="0 0 80 93" fill="none" xmlns="http://www.w3.org/2000/svg">
<circle cx="40" cy="53" r="40" fill="#F96F2E"/>
<path fill-rule="evenodd" clip-rule="evenodd" d="M24.5 4.46667C24.5 3.63825 23.8284 2.96667 23 2.96667C22.1716 2.96667 21.5 3.63825 21.5 4.46667L21.5 51.9686C21.1728 53.4358 21 54.9631 21 56.5316C21 67.8228 29.9543 76.9761 41 76.9761C52.0457 76.9761 61 67.8228 61 56.5316C61 45.2405 52.0457 36.0872 41 36.0872C34.1501 36.0872 28.1046 39.6073 24.5 44.9744L24.5 4.46667ZM24.3012 53.2578C24.4277 53.038 24.5 52.783 24.5 52.5111V52.331C26.3378 44.763 33.0281 39.1538 41 39.1538C50.3888 39.1538 58 46.9341 58 56.5316C58 66.1291 50.3888 73.9094 41 73.9094C31.6112 73.9094 24 66.1291 24 56.5316C24 55.4125 24.1035 54.3181 24.3012 53.2578Z" fill="#FFFFFE"/>
<circle cx="23" cy="5" r="5" fill="#F96F2E"/>
</svg>
