<svg width="20" height="20" viewBox="0 0 20 20" fill="none" xmlns="http://www.w3.org/2000/svg">
<path d="M16.0609 3.80762C14.3918 2.18262 12.1828 1.25098 10 1.25098C7.81719 1.25098 5.6082 2.18262 3.93906 3.80762C2.20508 5.4959 1.25 7.65723 1.25 10.001C1.25 12.3447 2.29844 14.6295 3.02422 15.9482C3.75 17.267 4.72656 18.751 5.625 18.751C6.875 18.751 9.375 17.501 9.375 17.501L5 9.37598L2.87422 10.6154C2.84805 10.371 2.83502 10.1253 2.83516 9.87949C2.83516 7.98223 3.58984 6.20371 5.02852 4.80137C6.41562 3.45176 8.20312 2.73535 10 2.73535C11.7969 2.73535 13.5832 3.45176 14.9715 4.80293C16.4102 6.20371 17.1645 7.98223 17.1645 9.88105C17.1646 10.1266 17.1516 10.372 17.1254 10.6162L15 9.37598L10.625 17.501C10.625 17.501 13.125 18.751 14.375 18.751C15.2734 18.751 16.25 17.2666 16.9758 15.9482C17.7016 14.6299 18.75 12.3447 18.75 10.001C18.75 7.65723 17.7949 5.4959 16.0609 3.80762Z" fill="#FAFAFA"/>
</svg>
