<svg width="153" height="28" viewBox="0 0 153 28" fill="none" xmlns="http://www.w3.org/2000/svg">
    <path
        d="M37.1341 16.2009C36.1999 15.2184 35.0692 14.5744 33.7541 14.2479C35.048 13.9154 36.1666 13.2654 37.1069 12.2768C38.5097 10.8044 39.208 8.95722 39.2231 6.7442H35.6073C35.6013 8.01397 35.2415 9.05095 34.528 9.8642C33.8085 10.6835 32.8622 11.0916 31.6922 11.0916C30.5403 11.0916 29.5941 10.6805 28.8564 9.8642C28.1217 9.05397 27.7559 8.01397 27.7499 6.7442H24.125C24.125 9.00257 24.8234 10.8589 26.2201 12.3191C27.1573 13.2986 28.285 13.9396 29.5971 14.26C28.3334 14.5956 27.2178 15.2426 26.2715 16.2282C24.8415 17.7186 24.125 19.59 24.125 21.8454H27.7469C27.7469 21.8363 27.7438 21.8272 27.7438 21.8182C27.7438 20.5393 28.1066 19.4842 28.8262 18.6589C29.5457 17.8305 30.492 17.4133 31.662 17.4133C32.8138 17.4133 33.7601 17.8335 34.4978 18.6709C35.2355 19.5084 35.6073 20.5605 35.6073 21.8182C35.6073 21.8272 35.6043 21.8363 35.6043 21.8454H39.2201C39.2201 21.8242 39.2231 21.8091 39.2231 21.7909C39.2262 19.5326 38.5308 17.6702 37.1341 16.2009"
        fill="#111314" />
    <path fill-rule="evenodd" clip-rule="evenodd"
        d="M4.77907 26.7854V20.633C5.92791 21.6126 7.34884 22.1023 9.04186 22.1054C11.394 22.1054 13.2714 21.3586 14.6742 19.8621C16.0709 18.3656 16.7753 16.4972 16.7753 14.257C16.7753 11.9623 16.083 10.094 14.7014 8.6549C13.3198 7.21281 11.4907 6.49327 9.21116 6.49327C7.25512 6.49327 5.71326 7.0556 4.58256 8.18629V6.7442H1V26.7854H4.77907ZM4.66721 14.3114C4.66721 13.0114 5.04814 11.9442 5.79791 11.1068C6.54767 10.2723 7.55442 9.85211 8.81814 9.85211C10.0607 9.85211 11.0674 10.2693 11.8384 11.1068C12.6093 11.9442 12.9963 13.0114 12.9963 14.3114C12.9963 15.6114 12.6153 16.6756 11.8656 17.504C11.1128 18.3293 10.106 18.7435 8.84535 18.7435C7.60279 18.7435 6.59605 18.3323 5.82512 17.504C5.05419 16.6726 4.66721 15.6114 4.66721 14.3114Z"
        fill="#111314" />
    <path fill-rule="evenodd" clip-rule="evenodd"
        d="M18.5683 5.14188C19.0097 5.57118 19.5449 5.78885 20.1646 5.78885C20.8025 5.78885 21.3407 5.57118 21.773 5.14188C22.2023 4.70955 22.42 4.18048 22.42 3.56071C22.42 2.91978 22.2083 2.37862 21.773 1.93722C21.3407 1.49583 20.8056 1.27513 20.1646 1.27513C19.5449 1.27513 19.0097 1.49583 18.5683 1.93722C18.1269 2.37862 17.9062 2.91978 17.9062 3.56071C17.9062 4.1835 18.1269 4.70653 18.5683 5.14188ZM18.2721 21.8484H22.0572V6.7442H18.2721V21.8484Z"
        fill="#111314" />
    <path fill-rule="evenodd" clip-rule="evenodd"
        d="M43.5766 15.5237H54.3605C54.3968 15.0914 54.4149 14.5744 54.421 13.9758C54.421 11.6993 53.7528 9.88234 52.4166 8.52792C51.0833 7.17048 49.2845 6.49327 47.0261 6.49327C44.8463 6.49327 43.0596 7.23095 41.678 8.70932C40.2963 10.1877 39.604 12.0651 39.604 14.3416C39.604 16.7119 40.3145 18.5984 41.7354 20.0012C43.1533 21.404 45.0217 22.1023 47.3375 22.1023C49.0124 22.1023 50.4001 21.7244 51.5005 20.9716C52.601 20.2219 53.4142 19.2877 53.9403 18.1782L51.1468 16.4851C50.1854 17.9937 48.9156 18.7435 47.3345 18.7435C46.2582 18.7435 45.3905 18.4563 44.7224 17.8819C44.0512 17.3044 43.6703 16.5184 43.5766 15.5237ZM44.6921 10.5172C45.2817 9.96095 46.0496 9.68281 46.9898 9.68281C47.9905 9.68281 48.7977 9.95792 49.4175 10.5172C50.0403 11.0765 50.397 11.793 50.4907 12.6789H43.6612C43.7549 11.793 44.0996 11.0705 44.6921 10.5172Z"
        fill="#111314" />
    <rect x="56.0835" y="1.21466" width="3.78512" height="20.6337" fill="#111314" />
    <path
        d="M76.5815 6.57791C75.0003 6.57791 73.7396 7.1221 72.7964 8.21349C72.0255 7.1221 70.8313 6.57791 69.2108 6.57791C67.7596 6.57791 66.6773 7.01326 65.9638 7.87791V6.74419H62.1787V21.8454H65.9638V12.3886C65.9638 11.6177 66.1422 11.0161 66.502 10.5837C66.8557 10.1544 67.3666 9.93675 68.0257 9.93675C68.6666 9.93675 69.1594 10.1514 69.5071 10.5837C69.8548 11.0191 70.0301 11.5995 70.0301 12.3342V21.8454H73.8152V12.3342C73.8152 11.6177 73.9875 11.0372 74.3382 10.5988C74.6859 10.1574 75.1908 9.93675 75.8469 9.93675C76.5059 9.93675 77.0078 10.1484 77.3555 10.5716C77.7031 10.9949 77.8755 11.5844 77.8755 12.3372V21.8484H81.6575V11.8837C81.6575 10.3026 81.2494 9.02373 80.4301 8.04419C79.6138 7.06466 78.332 6.57791 76.5815 6.57791Z"
        fill="#111314" />
    <path fill-rule="evenodd" clip-rule="evenodd"
        d="M95.2923 8.15266C94.8421 7.64634 94.2142 7.24237 93.4179 6.94374C92.6167 6.64443 91.7581 6.49327 90.836 6.49327C88.5384 6.49327 86.676 7.22792 85.246 8.69722C83.816 10.1665 83.1025 12.0289 83.1025 14.2872C83.1025 16.6212 83.816 18.5047 85.246 19.9468C86.676 21.3889 88.5414 22.1084 90.836 22.1084C91.9274 22.1084 92.8616 21.93 93.6446 21.5702C94.4277 21.2165 94.996 20.8084 95.3528 20.3579V21.8514H98.8779V6.75025H95.2923V8.15266ZM91.0628 18.7435C92.3265 18.7435 93.3332 18.3263 94.083 17.4889C94.8328 16.6514 95.2137 15.5812 95.2107 14.2842C95.2107 13.0054 94.8207 11.9472 94.0377 11.1098C93.2546 10.2723 92.263 9.85513 91.0597 9.85513C89.7991 9.85513 88.7893 10.2754 88.0274 11.1098C87.2686 11.9472 86.8846 13.0054 86.8846 14.2842C86.8846 15.5842 87.2716 16.6514 88.0425 17.4889C88.8165 18.3263 89.8232 18.7435 91.0628 18.7435Z"
        fill="#111314" />
    <path
        d="M114.094 4.37396H110.309V6.74419H105.626V4.37396H101.85V6.74419H100.438V9.93675H101.85V18.0391C101.85 20.6754 103.195 21.9935 105.886 21.9935C106.261 21.9935 106.618 21.9784 106.944 21.9512C107.271 21.924 107.525 21.8907 107.691 21.8514L107.945 21.797V18.5772H107.068C106.542 18.5772 106.167 18.4502 105.952 18.1933C105.735 17.9393 105.629 17.5312 105.629 16.9658V9.93373H110.312V18.0361C110.312 20.6723 111.654 21.9905 114.348 21.9905C114.723 21.9905 115.08 21.9754 115.406 21.9481C115.733 21.9209 115.987 21.8877 116.153 21.8484L116.407 21.794V18.5742H115.53C115.004 18.5742 114.629 18.4472 114.415 18.1902C114.197 17.9363 114.091 17.5281 114.091 16.9628V9.93071H116.407V6.74419H114.091V4.37396H114.094Z"
        fill="#111314" />
    <path fill-rule="evenodd" clip-rule="evenodd"
        d="M119.345 8.70932C120.727 7.23095 122.511 6.49327 124.694 6.49327C126.949 6.49327 128.748 7.1735 130.084 8.52792C131.42 9.88234 132.088 11.6963 132.088 13.9758C132.082 14.5744 132.064 15.0944 132.028 15.5237H121.244C121.338 16.5214 121.722 17.3075 122.39 17.8819C123.058 18.4563 123.926 18.7435 125.002 18.7435C126.583 18.7435 127.853 17.9907 128.814 16.4851L131.608 18.1782C131.082 19.2877 130.268 20.2189 129.168 20.9716C128.068 21.7244 126.68 22.1023 125.005 22.1023C122.689 22.1023 120.824 21.404 119.403 20.0012C117.982 18.5984 117.271 16.7119 117.271 14.3416C117.271 12.0621 117.964 10.1877 119.345 8.70932ZM122.357 10.5142C121.764 11.0705 121.419 11.79 121.326 12.6758H128.158C128.065 11.79 127.705 11.0735 127.085 10.5142C126.462 9.9549 125.658 9.67978 124.657 9.67978C123.717 9.67978 122.949 9.95792 122.357 10.5142Z"
        fill="#111314" />
    <path
        d="M137.536 7.95954V6.74419H133.751V21.8454H137.536V12.6426C137.536 11.9684 137.687 11.4635 137.987 11.134C138.286 10.8075 138.794 10.6412 139.51 10.6412H140.469V6.68675C139.114 6.68978 138.135 7.11303 137.536 7.95954Z"
        fill="#111314" />
    <path
        d="M151.301 14.3265C150.727 13.6191 149.808 13.0779 148.547 12.703C148.284 12.6274 147.927 12.5337 147.474 12.4219C147.023 12.307 146.691 12.2223 146.485 12.1679C145.599 11.923 145.158 11.4514 145.158 10.7561C145.158 10.3812 145.297 10.0728 145.572 9.83698C145.844 9.60419 146.207 9.48629 146.658 9.48629C147.77 9.48629 148.341 10.097 148.381 11.3184H151.851C151.833 9.75838 151.383 8.57024 150.497 7.76303C149.614 6.9528 148.363 6.5507 146.745 6.5507C145.24 6.5507 144.003 6.96489 143.033 7.79024C142.065 8.61861 141.578 9.6707 141.578 10.9495C141.578 13.1686 142.621 14.6591 144.711 15.4088C145.01 15.5237 145.772 15.7505 146.996 16.0891C147.522 16.2402 147.906 16.4307 148.142 16.6544C148.378 16.8812 148.493 17.2107 148.493 17.643C148.493 18.0754 148.323 18.4109 147.988 18.6468C147.646 18.8795 147.223 18.9974 146.715 18.9974C145.491 18.9974 144.883 18.3172 144.883 16.9628H141.27C141.216 18.4321 141.612 19.6474 142.47 20.6058C143.326 21.5672 144.726 22.0479 146.661 22.0479C148.221 22.0479 149.527 21.6337 150.582 20.8084C151.637 19.98 152.163 18.8342 152.163 17.3649C152.163 16.0437 151.876 15.034 151.301 14.3265Z"
        fill="#111314" />
    <rect x="1" y="1.21466" width="151.163" height="25.5707" stroke="black" stroke-miterlimit="0"
        stroke-linejoin="bevel" />
</svg>
    